The Ghost Writer 2010 BluRay.720p.x264.AC3.[PHD]

  http://www.imdb.com/title/tt1139328/

INFO <> INFO <> INFO <> INFO

Format : Matroska
 Format version : Version 2
 File size : 5.53 GiB
 Duration : 2h 3mn
 Overall bit rate : 6 429 Kbps
 Encoded date : UTC 2010-08-22 03:06:21
 Writing application : mkvmerge v3.3.0 ('Language' built on Mar 24 2010 14:59:24
 Writing library : libebml v0.8.0 + libmatroska v0.9.0

 Video
 ID : 1
 Format : AVC
 Format/Info : Advanced Video Codec
 Format profile : High@L4.1
 Format settings, CABAC : Yes
 Format settings, ReFrames : 5 frames
 Codec ID : V_MPEG4/ISO/AVC
 Duration : 2h 3mn
 Bit rate : 5 797 Kbps
 Width : 1 280 pixels
 Height : 544 pixels
 Display aspect ratio : 2.35:1
 Frame rate : 25.000 fps
 Original frame rate : 23.976 fps
 Color space : YUV
 Chroma subsampling : 4:2:0
 Bit depth : 8 bits
 Scan type : Progressive
 Bits/(Pixel*Frame) : 0.333
 Stream size : 5.09 GiB (92%)
 Writing library : x264 core 104 r1677 19df41a
 Language : Polish
 Default : Yes
 Forced : No

 Audio
 ID : 2
 Format : AC-3
 Format/Info : Audio Coding 3
 Mode extension : CM (complete main)
 Codec ID : A_AC3
 Duration : 2h 3mn
 Bit rate mode : Constant
 Bit rate : 384 Kbps
 Channel(s) : 6 channels
 Channel positions : Front: L C R, Side: L R, LFE
 Sampling rate : 48.0 KHz
 Bit depth : 16 bits
 Compression mode : Lossy
 Delay relative to video : 22s 500ms
 Stream size : 338 MiB (6%)
 Language : Polish
 Default : Yes
 Forced : No